<?xml version="1.0" encoding="UTF-8" standalone="no"?>
<!-- Created with Inkscape (http://www.inkscape.org/) -->

<svg
   xmlnsDc="http://purl.org/dc/elements/1.1/"
   xmlnsCc="http://creativecommons.org/ns#"
   xmlnsRdf="http://www.w3.org/1999/02/22-rdf-syntax-ns#"
   xmlnsSvg="http://www.w3.org/2000/svg"
   xmlns="http://www.w3.org/2000/svg"
   xmlnsSodipodi="http://sodipodi.sourceforge.net/DTD/sodipodi-0.dtd"
   xmlnsInkscape="http://www.inkscape.org/namespaces/inkscape"
   width="744.09448819"
   height="1052.3622047"
   id="svg4285"
   version="1.1"
   inkscapeVersion="0.47 r22583"
   sodipodiDocname="Новый документ 12">
  <defs
     id="defs4287">
    <inkscapePerspective
       sodipodiType="inkscape:persp3d"
       inkscapeVp_x="0 : 526.18109 : 1"
       inkscapeVp_y="0 : 1000 : 0"
       inkscapeVp_z="744.09448 : 526.18109 : 1"
       inkscapePersp3d-origin="372.04724 : 350.78739 : 1"
       id="perspective4293" />
    <inkscapePerspective
       id="perspective4278"
       inkscapePersp3d-origin="0.5 : 0.33333333 : 1"
       inkscapeVp_z="1 : 0.5 : 1"
       inkscapeVp_y="0 : 1000 : 0"
       inkscapeVp_x="0 : 0.5 : 1"
       sodipodiType="inkscape:persp3d" />
  </defs>
  <sodipodiNamedview
     id="base"
     pagecolor="#ffffff"
     bordercolor="#666666"
     borderopacity="1.0"
     inkscapePageopacity="0.0"
     inkscapePageshadow="2"
     inkscapeZoom="0.71268239"
     inkscapeCx="153.15591"
     inkscapeCy="470.05511"
     inkscapeDocument-units="px"
     inkscapeCurrent-layer="layer1"
     showgrid="false"
     inkscapeWindow-width="1920"
     inkscapeWindow-height="1005"
     inkscapeWindow-x="0"
     inkscapeWindow-y="25"
     inkscapeWindow-maximized="1" />
  <metadata
     id="metadata4290">
    <rdfRDF>
      <ccWork
         rdfAbout="">
        <dcFormat>image/svg+xml</dcFormat>
        <dcType
           rdfResource="http://purl.org/dc/dcmitype/StillImage" />
        <dcTitle></dcTitle>
      </ccWork>
    </rdfRDF>
  </metadata>
  <g
     inkscapeLabel="Layer 1"
     inkscapeGroupmode="layer"
     id="layer1">
    <g
       id="g4234"
       transform="matrix(2.0798687,0,0,2.0114065,-3674.1748,-342.34359)">
      <path
         id="path4045"
         d="m 1945.4062,221.23718 c -44.7141,26.49884 -25.9175,37.41841 -34.5624,56.125 21.6121,37.4132 -30.2698,37.39063 -21.625,3.71875 -5.8544,-12.93791 -21.4117,-18.66281 -34.5626,-26.1875 -6.9667,15.91344 -6.1487,32.26827 -4.3437,48.65625 34.5796,22.44792 -12.939,37.39062 -25.9063,3.71875 -8.731,-7.12315 -22.1888,-4.31819 -34.5937,-3.71875 18.5196,16.01228 40.7027,28.22525 51.7187,52.03125 -17.0791,16.79417 -21.9744,39.20749 -26.5312,61.78125 4.6431,-2.38037 8.1904,-6.95253 15,-5 -15.0584,34.33918 -10.4798,66.71464 -15,100 4.1035,-7.24119 8.5528,-13.61802 15,-15 15.1946,58.64449 43.3312,90.48061 75,115 21.9236,-20.06598 32.1597,0.77441 40,30 7.8403,-29.22559 18.0764,-50.06598 40,-30 31.6688,-24.51939 59.8054,-56.35551 75,-115 6.4472,1.38198 10.8965,7.75881 15,15 -4.5202,-33.28536 0.058,-65.66082 -15,-100 6.8096,-1.95253 10.3569,2.61963 15,5 -4.5356,-22.46929 -9.3933,-44.79426 -26.2812,-61.5625 0.1467,0.0405 0.2907,0.0844 0.4374,0.125 10.9608,-24.03332 33.2663,-36.28556 51.875,-52.375 -12.4048,-0.59944 -25.8625,-3.4044 -34.5937,3.71875 -12.9673,33.67187 -60.517,18.72917 -25.9375,-3.71875 1.805,-16.38798 2.6544,-32.74281 -4.3125,-48.65625 -13.1508,7.52469 -28.7081,13.24959 -34.5625,26.1875 8.6448,33.67188 -43.2371,33.69445 -21.625,-3.71875 -8.6449,-18.70659 10.1203,-29.62616 -34.5938,-56.125 z m 0,14.375 c 9.1173,12.9691 23.973,29.82758 8.6563,52.96875 6.1944,7.11347 -1.3057,27.04842 -8.6563,33.09375 -7.3506,-6.04533 -14.8194,-25.98028 -8.625,-33.09375 -15.3167,-23.14117 -0.4922,-39.99965 8.625,-52.96875 z m -79.5937,44.34375 c 6.948,5.75648 17.4068,12.82606 14.7813,27.3125 4.3785,2.99811 4.8101,14.70614 2.5312,18.9375 -4.7135,-2.26951 -12.2639,-11.97363 -10.75,-16.625 -11.9448,-10.39845 -8.2876,-21.43514 -6.5625,-29.625 z m 159.2187,0 c 1.7252,8.18986 5.3823,19.22655 -6.5624,29.625 1.5138,4.65137 -6.0365,14.35549 -10.75,16.625 -2.2789,-4.23136 -1.8473,-15.93939 2.5312,-18.9375 -2.6255,-14.48644 7.8333,-21.55602 14.7812,-27.3125 z"
         style="fill:#000000;fill-opacity:1;stroke:#ffff00;stroke-width:3;stroke-linecap:butt;stroke-linejoin:miter;stroke-miterlimit:4;stroke-opacity:1;stroke-dasharray:none" />
      <path
         id="path4095"
         d="m 1944.1562,361.51843 c -16.8803,0.0516 -32.9027,16.09228 -14.1562,50.84375 -25,-10 -20,-30 -40,-30 -14.6982,3.87135 -15.1265,20.67045 -20,30 8.0424,-4.20609 14.8168,-12.21621 25,-10 3.9276,8.94918 9.0321,16.91774 20,20 8.3333,-1.38639 16.6667,0.4579 25,5 l 0,10 c -2.0312,14.29323 -9.6927,21.34748 -20,25 -15.5254,-7.72065 -32.097,-13.91958 -35,-40 l -15,0 c -5.3921,9.74509 -1.3647,17.60627 5,25 -6.5675,2.15302 -10.7383,-4.08267 -15,-10 0.1134,9.10998 0.2539,18.20637 5,25 11.6624,3.90042 21.8923,6.62051 30,20 -0.4046,11.89305 -7.638,13.54306 -15,15 -1.4686,15.92408 0.027,31.42465 15,45 -1.3117,-8.63424 -1.0542,-14.91465 0,-20 10.2964,3.40673 20.833,4.16996 30,20 10.0172,1.70114 17.0934,-2.47993 20,-15 2.9066,12.52007 9.9828,16.70114 20,15 9.167,-15.83004 19.7036,-16.59327 30,-20 1.0542,5.08535 1.3117,11.36576 0,20 14.9726,-13.57535 16.4686,-29.07592 15,-45 -7.362,-1.45694 -14.5954,-3.10695 -15,-15 8.1077,-13.37949 18.3377,-16.09958 30,-20 4.7461,-6.79363 4.8866,-15.89002 5,-25 -4.2617,5.91733 -8.4325,12.15302 -15,10 6.3647,-7.39373 10.3921,-15.25491 5,-25 l -15,0 c -2.903,26.08042 -19.4746,32.27935 -35,40 -10.3073,-3.65252 -17.9688,-10.70677 -20,-25 l 0,-10 c 8.3333,-4.5421 16.6667,-6.38639 25,-5 10.968,-3.08226 16.0724,-11.05082 20,-20 10.1832,-2.21621 16.9576,5.79391 25,10 -4.8735,-9.32955 -5.3017,-26.12865 -20,-30 -20,0 -15,20 -40,30 21.0652,-32.83674 2.1256,-50.8987 -15.8438,-50.84375 z M 1851,380.36218 c -17.9423,6.04964 -19.6139,9.45808 -26,26 11,-8 15.4934,-19.3148 26,-26 z m 188,0 c 10.5066,6.6852 15,18 26,26 -6.3861,-16.54192 -8.0577,-19.95036 -26,-26 z m -164,2 c -27,4 -40,15 -30,45 0,-30 20,-25 30,-45 z m 140,0 c 10,20 30,15 30,45 10,-30 -3,-41 -30,-45 z m -125,40 c 20,15 10,20 20,25 4.2376,-0.76238 9.838,-0.16196 10,-5 0,-15 -10,-10 -30,-20 z m 110,0 c -20,10 -30,5 -30,20 0.162,4.83804 5.7624,4.23762 10,5 10,-5 0,-10 20,-25 z m -87.5,15 c 1.3807,0 2.5,1.11929 2.5,2.5 0,1.38071 -1.1193,2.5 -2.5,2.5 -1.3807,0 -2.5,-1.11929 -2.5,-2.5 0,-1.38071 1.1193,-2.5 2.5,-2.5 z m 65,0 c 1.3807,0 2.5,1.11929 2.5,2.5 0,1.38071 -1.1193,2.5 -2.5,2.5 -1.3807,0 -2.5,-1.11929 -2.5,-2.5 0,-1.38071 1.1193,-2.5 2.5,-2.5 z m -122.5,30 c 1.4523,18.54767 6.4322,33.56783 15,45 -2.1021,-11.92943 -6.8333,-24.1875 0,-35 -2.6335,-5.1082 -7.6228,-8.44955 -15,-10 z m 70,0 c 0.9641,12.36924 7.0729,19.59375 20,20 12.9271,-0.40625 19.0359,-7.63076 20,-20 25,20 5,20 5,40 -6.7148,-16.89864 -16.2692,1.69887 -25,10 -8.7308,-8.30113 -18.2852,-26.89864 -25,-10 0,-20 -20,-20 5,-40 z m 110,0 c -7.3772,1.55045 -12.3665,4.8918 -15,10 6.8333,10.8125 2.1021,23.07057 0,35 8.5678,-11.43217 13.5477,-26.45233 15,-45 z m -175,50 c 22.3017,38.8324 10,50 50,65 -30,-25 -20,-40 -50,-65 z m 170,0 c -30,25 -20,40 -50,65 40,-15 27.6983,-26.1676 50,-65 z m -59.6562,29.40625 c -16.3336,7.91695 -0.7005,20.30777 -25.3438,15.59375 -20.1286,11.82036 -12.4787,-18.8763 -30,-15 6.1785,17.53519 0.032,37.87149 30,50 29.9679,-12.12851 23.8215,-32.46481 30,-50 -1.25,-0.3125 -2.3489,-0.5051 -3.3438,-0.5625 -0.4663,-0.0269 -0.8963,-0.0545 -1.3124,-0.0312 z"
         style="fill:#ffffff;fill-opacity:1;stroke:none" />
    </g>
  </g>
</svg>
