<?xml version="1.0" encoding="utf-8"?>
<svg version="1.1" id="Layer_1" xmlns="http://www.w3.org/2000/svg" xmlns:xlink="http://www.w3.org/1999/xlink" x="0px" y="0px"
	 viewBox="0 0 2645.903 1452.507" enable-background="new 0 0 2645.903 1452.507" xml:space="preserve">
<path d="M2548.137,768.081c-18.694-5.393-16.403-10.282-20.083-15.222c-16.246-21.771-30.473-5.283-70.196-61.159
	c-55.454-78.071-32.934-58.438-46.114-103.724c-11.22-38.533-39.695-86.592-27.573-107.985
	c6.625-11.645,18.853-16.218,35.734-43.928c11.197-18.377,12.25-24.931,51.764-163.819c2.03-7.141,5.88-17.181,3.759-24.692
	c-2.71-9.611-19.361,9.086-21.381,10.99c-29.604,27.763-38.727,23.319-94.308,79.996c-5.701,5.821-16.972,24.452-26.533,23.113
	c-16.252-2.278-1.386-55.874-17.281-53.49c-9.797,1.459-5.887,7.823-37.053,33.253c-14.091,11.506-24.212,24.462-36.424,37.618
	c-9.091,9.801-19.951-0.595-29.202-5.305c-37.973-19.352-70.716-47.95-110.049-64.921
	c-342.205-147.656-466.015-152.666-794.767-168.979c-182.171-9.041-451.124,11.465-557.837,25.382
	c-272.498,35.54-323.284,124.928-342.234,141.98c-7.345,6.61-16.51,7.214-25.728,8.995
	c-130.303,25.178-214.561,33.67-240.679-83.661c42.491,8.602,99.404-13.021,115.998-39.903c13.718-22.223,13.501-61.242-4.464-81.6
	c-19.189-21.746-52.165-7.424-73.851,1.556c-19.444,8.051-39.105,19.496-52.195,36.362c0.262-0.338-0.602,0.735-0.606,0.749
	c-12.525,16.355-19.291,34.195-21.624,52.721C76.385,179.183,49.29,78.21,42.951,41.571c2.832,25.205,22.179,143.571,61.336,173.816
	c-0.552,30.043,9.451,61.365,24.655,90.706c17.941,34.295,37.117,47.885,73.916,59.867c44.544,15.161,95.217,19.418,150.711,9.046
	c-126.611,130.547-38.133,371.508,46.471,534.411c33.714,64.878,9.767,81.333-2.975,108.91
	c-25.783,55.839,50.772,113.408,35.482,234.249c-8.594,67.996-6.829,60.416,11.181,103.859
	c10.799,26.024,21.423,12.792,23.807,11.332c7.916-4.86,19.413,18.201,21.158,23.262c5.685,16.521,12.186,17.011,29.557,18.891
	c25.045,2.712,85.344,0.313,94.093-11.071c7.171-9.33-14.711-33.143-19.167-41.253c19.664,0,78.612-1.918,70.996-19.521
	c-18.66-43.066-55.479-50.651-59.6-164.445c-3.341-92.094,23.449-170.01,70.836-231.109c7.1-9.161,13.842-19.402,22.676-26.983
	c10.396-8.9,36.993,5.681,48.72,8.711c26.256,6.796,272,48.366,273.108,48.533c18.834,2.848,123.604,8.032,135.311,7.641
	c20.255-0.67,19.256-1.87,140.267-20.041c170.682-25.589,111.343-12.211,260.212-64.385c15.301-5.356,19.841-12.658,38.553,19.382
	c19.451,33.297,44.242,96.778,49.255,119.95c4.12,19.051,6.21,38.773,9.271,58.025c2.61,16.461,14.791,30.282,19.991,45.954
	c18.28,55.122-23.719,115.143,20.062,171.384c4.97,6.381,9.97,6.961,16.692,10.201c13.716,6.578,18.043,39.879,38.123,41.834
	c19.722,1.94,16.752,21.021,29.963,31.052c19.202,14.591,57.055,6.22,79.396,4.6c8.341-0.6,38.604-2.099,41.404-12.371
	c2.53-9.28-11.871-28.742-17.681-34.633c-26.993-27.323-37.314-70.326-44.625-107.329c-8.38-42.414-2.55-83.057,0.071-125.69
	c4.914-80.388,6.065-63.584,20.312-124.611c8.56-36.643,9.001-77.006,34.412-106.689c15.371-17.945,32.378-10.999,106.02,0.491
	c216.733,33.748,95.214,32.36,262.542,29.822c20.782-0.31,41.304-4.78,62.075-4.6c121.518,1.089,216.782,22.111,235.229-18.511
	c6.151-13.531,23.883-1.12,28.282-15.621c6.439-21.3,5.985-75.966,17.902-94.528
	C2601.049,762.877,2572.832,775.238,2548.137,768.081z M233.305,124.776c0.041,0.028,0.049,0.044,0.124,0.048
	c0.051,0.044,0.104,0.112,0.156,0.163c-0.172-0.08-0.318-0.174-0.313-0.19C233.279,124.795,233.29,124.787,233.305,124.776z
	 M233.914,125.098c-0.099-0.014-0.209-0.057-0.314-0.104L233.914,125.098z M188.114,139.459
	c15.424-8.003,42.832-21.833,54.454-1.257c27.752,49.135-46.739,89.282-101.473,80.715c-1.645-0.257-2.184-0.731-2.231-2.608
	c-0.253-10.208,1.924-22.492,5.449-32.109C151.712,164.017,169.182,149.281,188.114,139.459z"/>
</svg>
